<svg width="32" height="28" viewBox="0 0 32 28" fill="none" xmlns="http://www.w3.org/2000/svg">
<g clip-path="url(#clip0_348_635)">
<path d="M16 0C7.16352 0 0 6.7158 0 15C0 22.0344 5.16608 27.9372 12.135 29.5584V19.584H8.83584V15H12.135V13.0248C12.135 7.9194 14.5997 5.553 19.9462 5.553C20.96 5.553 22.7091 5.7396 23.4246 5.9256V10.0806C23.047 10.0434 22.391 10.0248 21.5763 10.0248C18.953 10.0248 17.9392 10.9566 17.9392 13.3788V15H23.1654L22.2675 19.584H17.9392V29.8902C25.8618 28.9932 32.0006 22.6692 32.0006 15C32 6.7158 24.8365 0 16 0Z" fill="#E9197F"/>
</g>
<defs>
<clipPath id="clip0_348_635">
<rect width="32" height="30" fill="white"/>
</clipPath>
</defs>
</svg>
