<svg  viewBox="0 0 12 10" fill="currentColor" xmlns="http://www.w3.org/2000/svg">
<path d="M6.21432 0.90039C7.64568 0.90039 7.81519 0.90625 8.37811 0.929687C8.90126 0.951172 9.18377 1.0332 9.37211 1.10156C9.62113 1.19141 9.8011 1.30078 9.98734 1.47461C10.1757 1.65039 10.2908 1.81641 10.387 2.04883C10.4603 2.22461 10.5482 2.49023 10.5712 2.97656C10.5963 3.50391 10.6026 3.66211 10.6026 4.99609C10.6026 6.33203 10.5963 6.49023 10.5712 7.01562C10.5482 7.50391 10.4603 7.76758 10.387 7.94336C10.2908 8.17578 10.1736 8.34375 9.98734 8.51758C9.799 8.69336 9.62113 8.80078 9.37211 8.89062C9.18377 8.95898 8.89917 9.04101 8.37811 9.0625C7.81309 9.08594 7.64359 9.09179 6.21432 9.09179C4.78296 9.09179 4.61346 9.08594 4.05054 9.0625C3.52738 9.04101 3.24487 8.95898 3.05654 8.89062C2.80751 8.80078 2.62755 8.69141 2.4413 8.51758C2.25296 8.3418 2.13787 8.17578 2.04161 7.94336C1.96837 7.76758 1.88048 7.50195 1.85746 7.01562C1.83235 6.48828 1.82607 6.33008 1.82607 4.99609C1.82607 3.66016 1.83235 3.50195 1.85746 2.97656C1.88048 2.48828 1.96837 2.22461 2.04161 2.04883C2.13787 1.81641 2.25506 1.64844 2.4413 1.47461C2.62964 1.29883 2.80751 1.19141 3.05654 1.10156C3.24487 1.0332 3.52947 0.951172 4.05054 0.929687C4.61346 0.90625 4.78296 0.90039 6.21432 0.90039ZM6.21432 0C4.75994 0 4.57788 0.00585937 4.00659 0.0292969C3.4374 0.0527344 3.04607 0.138672 2.70707 0.261719C2.35341 0.390625 2.05416 0.560547 1.75701 0.839844C1.45776 1.11719 1.2757 1.39648 1.13759 1.72461C1.00575 2.04297 0.913679 2.40625 0.888567 2.9375C0.863456 3.47266 0.857178 3.64258 0.857178 5C0.857178 6.35742 0.863456 6.52734 0.888567 7.06055C0.913679 7.5918 1.00575 7.95703 1.13759 8.27344C1.2757 8.60351 1.45776 8.88281 1.75701 9.16015C2.05416 9.4375 2.35341 9.60937 2.70497 9.73633C3.04607 9.85937 3.4353 9.94531 4.0045 9.96875C4.57579 9.99219 4.75785 9.99804 6.21223 9.99804C7.66661 9.99804 7.84867 9.99219 8.41996 9.96875C8.98915 9.94531 9.38048 9.85937 9.71948 9.73633C10.071 9.60937 10.3703 9.4375 10.6674 9.16015C10.9646 8.88281 11.1488 8.60351 11.2848 8.27539C11.4166 7.95703 11.5087 7.59375 11.5338 7.0625C11.5589 6.5293 11.5652 6.35937 11.5652 5.00195C11.5652 3.64453 11.5589 3.47461 11.5338 2.94141C11.5087 2.41016 11.4166 2.04492 11.2848 1.72852C11.1529 1.39648 10.9709 1.11719 10.6716 0.839844C10.3745 0.5625 10.0752 0.390625 9.72367 0.263672C9.38257 0.140625 8.99334 0.0546875 8.42414 0.03125C7.85076 0.00585938 7.6687 0 6.21432 0Z" />
<path d="M6.21434 2.43164C4.69509 2.43164 3.46252 3.58203 3.46252 5C3.46252 6.41797 4.69509 7.56836 6.21434 7.56836C7.73359 7.56836 8.96615 6.41797 8.96615 5C8.96615 3.58203 7.73359 2.43164 6.21434 2.43164ZM6.21434 6.66601C5.22871 6.66601 4.42932 5.91992 4.42932 5C4.42932 4.08008 5.22871 3.33398 6.21434 3.33398C7.19997 3.33398 7.99935 4.08008 7.99935 5C7.99935 5.91992 7.19997 6.66601 6.21434 6.66601Z" />
<path d="M9.71737 2.33008C9.71737 2.66211 9.42859 2.92969 9.07494 2.92969C8.71919 2.92969 8.4325 2.66016 8.4325 2.33008C8.4325 1.99805 8.72128 1.73047 9.07494 1.73047C9.42859 1.73047 9.71737 2 9.71737 2.33008Z" />
</svg>
