<svg  viewBox="0 0 11 10" fill="currentColor" xmlns="http://www.w3.org/2000/svg">
<path d="M10.2069 0H1.07678C0.639422 0 0.285767 0.322266 0.285767 0.720703V9.27734C0.285767 9.67578 0.639422 10 1.07678 10H10.2069C10.6443 10 11.0001 9.67578 11.0001 9.2793V0.720703C11.0001 0.322266 10.6443 0 10.2069 0ZM3.46448 8.52148H1.87408V3.74805H3.46448V8.52148ZM2.66928 3.09766C2.15867 3.09766 1.74643 2.71289 1.74643 2.23828C1.74643 1.76367 2.15867 1.37891 2.66928 1.37891C3.17779 1.37891 3.59004 1.76367 3.59004 2.23828C3.59004 2.71094 3.17779 3.09766 2.66928 3.09766ZM9.41593 8.52148H7.82762V6.20117C7.82762 5.64844 7.81716 4.93555 7.00103 4.93555C6.17444 4.93555 6.04888 5.53906 6.04888 6.16211V8.52148H4.46266V3.74805H5.9861V4.40039H6.00703C6.21838 4.02539 6.73736 3.62891 7.50954 3.62891C9.11878 3.62891 9.41593 4.61719 9.41593 5.90234V8.52148Z" />
</svg>
