<svg viewBox="0 0 12 9" fill="currentColor" xmlns="http://www.w3.org/2000/svg">
<path d="M3.79919 8.62922C7.84133 8.62922 10.0528 5.30746 10.0528 2.42771C10.0528 2.33433 10.0507 2.23887 10.0465 2.14548C10.4767 1.83696 10.848 1.45481 11.1429 1.01699C10.7422 1.19377 10.3168 1.30922 9.88122 1.3594C10.3399 1.08677 10.6833 0.658476 10.8478 0.153919C10.4163 0.407498 9.94447 0.586376 9.45244 0.682886C9.12093 0.333567 8.6826 0.102277 8.20523 0.0247739C7.72787 -0.052729 7.23805 0.0278726 6.81151 0.254117C6.38497 0.480361 6.04546 0.839647 5.84548 1.27643C5.64551 1.7132 5.59619 2.20315 5.70516 2.67051C4.83149 2.62703 3.97677 2.40196 3.19644 2.0099C2.4161 1.61783 1.72756 1.06752 1.17545 0.394642C0.894839 0.874416 0.808971 1.44215 0.935299 1.98245C1.06163 2.52275 1.39067 2.99508 1.85556 3.30344C1.50655 3.29245 1.16519 3.19927 0.859671 3.03159V3.05857C0.859359 3.56206 1.03488 4.05011 1.35641 4.43978C1.67793 4.82944 2.12561 5.09667 2.62334 5.19602C2.30004 5.28374 1.96072 5.29652 1.63164 5.23337C1.7721 5.66638 2.04536 6.04509 2.41331 6.31667C2.78125 6.58824 3.22552 6.73913 3.6841 6.74827C2.90556 7.35472 1.94385 7.68366 0.95384 7.6821C0.778271 7.68184 0.602874 7.67117 0.428589 7.65015C1.43433 8.29 2.60427 8.62984 3.79919 8.62922Z" />
</svg>
