<svg width="24" height="25" viewBox="0 0 24 25" fill="none" xmlns="http://www.w3.org/2000/svg">
<path d="M20 11.8537H22C22 6.66875 18.127 2.7583 12.99 2.7583V4.77973C17.052 4.77973 20 7.75426 20 11.8537Z" fill="#E9197F"/>
<path d="M13 8.82233C15.103 8.82233 16 9.72894 16 11.8545H18C18 8.59492 16.225 6.8009 13 6.8009V8.82233ZM16.422 14.3236C16.2299 14.1471 15.9774 14.053 15.7178 14.0611C15.4583 14.0692 15.212 14.1789 15.031 14.3671L12.638 16.8545C12.062 16.7433 10.904 16.3784 9.71204 15.1767C8.52004 13.9709 8.15904 12.7975 8.05204 12.2193L10.511 9.79969C10.6975 9.61688 10.8062 9.36794 10.8142 9.10554C10.8222 8.84314 10.7289 8.58789 10.554 8.39379L6.85904 4.28726C6.68408 4.09255 6.44092 3.97445 6.18119 3.95803C5.92146 3.94161 5.66564 4.02817 5.46804 4.19933L3.29804 6.08026C3.12515 6.25564 3.02196 6.48905 3.00804 6.73622C2.99304 6.9889 2.70704 12.9743 7.29904 17.6176C11.305 21.6655 16.323 21.9616 17.705 21.9616C17.907 21.9616 18.031 21.9555 18.064 21.9535C18.3086 21.9397 18.5394 21.8349 18.712 21.6594L20.572 19.4651C20.7415 19.2656 20.8273 19.0071 20.8113 18.7446C20.7952 18.4821 20.6785 18.2362 20.486 18.0592L16.422 14.3236Z" fill="#E9197F"/>
</svg>
