<svg width="24" height="25" viewBox="0 0 24 25" fill="none" xmlns="http://www.w3.org/2000/svg">
<path d="M12 2.16553C9.81276 2.16814 7.71584 3.04748 6.16923 4.61067C4.62261 6.17385 3.75259 8.29324 3.75001 10.5039C3.74739 12.3105 4.33124 14.068 5.41201 15.507C5.41201 15.507 5.63701 15.8064 5.67376 15.8496L12 23.3905L18.3293 15.8458C18.3623 15.8056 18.588 15.507 18.588 15.507L18.5888 15.5047C19.669 14.0664 20.2526 12.3097 20.25 10.5039C20.2474 8.29324 19.3774 6.17385 17.8308 4.61067C16.2842 3.04748 14.1873 2.16814 12 2.16553ZM12 13.5361C11.4067 13.5361 10.8266 13.3582 10.3333 13.0251C9.83995 12.6919 9.45543 12.2183 9.22837 11.6643C9.00131 11.1102 8.9419 10.5006 9.05765 9.91238C9.17341 9.3242 9.45913 8.78392 9.87869 8.35987C10.2982 7.93582 10.8328 7.64703 11.4147 7.53004C11.9967 7.41304 12.5999 7.47309 13.1481 7.70258C13.6962 7.93208 14.1648 8.32072 14.4944 8.81935C14.8241 9.31798 15 9.90422 15 10.5039C14.999 11.3078 14.6826 12.0784 14.1202 12.6469C13.5578 13.2153 12.7954 13.5351 12 13.5361Z" fill="#E9197F"/>
</svg>
