<svg width="25" height="24" viewBox="0 0 25 24" fill="none" xmlns="http://www.w3.org/2000/svg">
<path d="M20.6658 10.999H22.6658C22.6658 5.869 18.7928 2 13.6558 2V4C17.7178 4 20.6658 6.943 20.6658 10.999Z" fill="#E9197F"/>
<path d="M13.6653 7.99999C15.7683 7.99999 16.6653 8.89699 16.6653 11H18.6653C18.6653 7.77499 16.8903 5.99999 13.6653 5.99999V7.99999ZM17.0873 13.443C16.8952 13.2683 16.6427 13.1752 16.3831 13.1832C16.1236 13.1912 15.8773 13.2998 15.6963 13.486L13.3033 15.947C12.7273 15.837 11.5693 15.476 10.3773 14.287C9.18532 13.094 8.82432 11.933 8.71732 11.361L11.1763 8.96699C11.3627 8.78612 11.4715 8.53982 11.4795 8.2802C11.4875 8.02059 11.3942 7.76804 11.2193 7.57599L7.52432 3.51299C7.34936 3.32035 7.1062 3.2035 6.84647 3.18725C6.58675 3.17101 6.33092 3.25665 6.13332 3.42599L3.96332 5.28699C3.79043 5.46051 3.68724 5.69145 3.67332 5.93599C3.65832 6.18599 3.37232 12.108 7.96432 16.702C11.9703 20.707 16.9883 21 18.3703 21C18.5723 21 18.6963 20.994 18.7293 20.992C18.9738 20.9783 19.2046 20.8747 19.3773 20.701L21.2373 18.53C21.4068 18.3325 21.4926 18.0768 21.4765 17.817C21.4605 17.5573 21.3438 17.3141 21.1513 17.139L17.0873 13.443Z" fill="#E9197F"/>
</svg>
