<svg width="31" height="30" viewBox="0 0 31 30" fill="none" xmlns="http://www.w3.org/2000/svg">
<circle cx="15.6655" cy="15" r="15" fill="#E9197F"/>
<path d="M16.177 10.356C15.969 10.356 15.793 10.284 15.649 10.14C15.505 9.996 15.433 9.82 15.433 9.612C15.433 9.404 15.505 9.228 15.649 9.084C15.793 8.94 15.969 8.868 16.177 8.868C16.377 8.868 16.545 8.94 16.681 9.084C16.825 9.228 16.897 9.404 16.897 9.612C16.897 9.82 16.825 9.996 16.681 10.14C16.545 10.284 16.377 10.356 16.177 10.356ZM16.705 11.424V18H15.613V11.424H16.705Z" fill="white"/>
<path d="M14.689 19.2H17.641V19.8H14.689V19.2Z" fill="#E9197F"/>
<a href="https://www.instagram.com/instituto_educatec/">
<rect fill="black" fill-opacity="0" x="4.02344" y="-9.53674e-07" width="2.952" height="18"/>
</a>
<path fill-rule="evenodd" clip-rule="evenodd" d="M9.54813 7.045C10.3212 7.00818 10.5676 7 12.5368 7C14.5059 7 14.7524 7.00886 15.5247 7.045C16.2971 7.08114 16.8243 7.20864 17.2856 7.39341C17.7687 7.58227 18.2069 7.8775 18.5694 8.25932C18.9384 8.63364 19.2231 9.08636 19.405 9.58682C19.5843 10.0641 19.7068 10.6095 19.7424 11.4073C19.778 12.2084 19.7859 12.4634 19.7859 14.5C19.7859 16.5373 19.7774 16.7923 19.7424 17.592C19.7075 18.3898 19.5843 18.9352 19.405 19.4125C19.2231 19.913 18.938 20.3665 18.5694 20.7414C18.2069 21.1232 17.7687 21.4177 17.2856 21.6059C16.8243 21.7914 16.2971 21.9182 15.5261 21.955C14.7524 21.9918 14.5059 22 12.5368 22C10.5676 22 10.3212 21.9911 9.54813 21.955C8.77708 21.9189 8.24987 21.7914 7.78856 21.6059C7.30479 21.4177 6.86648 21.1227 6.50414 20.7414C6.13534 20.3668 5.84994 19.9136 5.66785 19.4132C5.48926 18.9359 5.36668 18.3905 5.33109 17.5927C5.29551 16.7916 5.2876 16.5366 5.2876 14.5C5.2876 12.4627 5.29616 12.2077 5.33109 11.4086C5.36602 10.6095 5.48926 10.0641 5.66785 9.58682C5.85021 9.08642 6.13583 8.63317 6.5048 8.25864C6.86662 7.87716 7.30449 7.58189 7.7879 7.39341C8.24921 7.20864 8.77642 7.08182 9.54747 7.045H9.54813ZM15.4661 8.395C14.7016 8.35886 14.4723 8.35136 12.5368 8.35136C10.6012 8.35136 10.3719 8.35886 9.60744 8.395C8.90032 8.42841 8.51677 8.55045 8.26107 8.65341C7.923 8.78977 7.68114 8.95136 7.42742 9.21386C7.18691 9.45594 7.00181 9.75065 6.88571 10.0764C6.7862 10.3409 6.66823 10.7377 6.63594 11.4693C6.60101 12.2602 6.59377 12.4975 6.59377 14.5C6.59377 16.5025 6.60101 16.7398 6.63594 17.5307C6.66823 18.2623 6.7862 18.6591 6.88571 18.9236C7.0017 19.2489 7.18688 19.5441 7.42742 19.7861C7.66137 20.035 7.94672 20.2266 8.26107 20.3466C8.51677 20.4495 8.90032 20.5716 9.60744 20.605C10.3719 20.6411 10.6006 20.6486 12.5368 20.6486C14.4729 20.6486 14.7016 20.6411 15.4661 20.605C16.1732 20.5716 16.5568 20.4495 16.8125 20.3466C17.1505 20.2102 17.3924 20.0486 17.6461 19.7861C17.8866 19.5441 18.0718 19.2489 18.1878 18.9236C18.2873 18.6591 18.4053 18.2623 18.4376 17.5307C18.4725 16.7398 18.4798 16.5025 18.4798 14.5C18.4798 12.4975 18.4725 12.2602 18.4376 11.4693C18.4053 10.7377 18.2873 10.3409 18.1878 10.0764C18.056 9.72659 17.8998 9.47636 17.6461 9.21386C17.4121 8.96505 17.1273 8.77355 16.8125 8.65341C16.5568 8.55045 16.1732 8.42841 15.4661 8.395ZM11.6108 16.812C12.1279 17.0347 12.7037 17.0648 13.2399 16.8971C13.776 16.7294 14.2393 16.3743 14.5505 15.8924C14.8617 15.4106 15.0015 14.832 14.9462 14.2553C14.8908 13.6786 14.6436 13.1398 14.2469 12.7307C13.994 12.4692 13.6882 12.269 13.3515 12.1444C13.0148 12.0199 12.6557 11.9741 12.2998 12.0104C11.944 12.0467 11.6004 12.1642 11.2937 12.3544C10.9871 12.5446 10.725 12.8028 10.5263 13.1104C10.3277 13.4179 10.1974 13.7672 10.1449 14.1332C10.0924 14.4991 10.1189 14.8725 10.2227 15.2265C10.3264 15.5805 10.5047 15.9063 10.7447 16.1805C10.9848 16.4547 11.2806 16.6704 11.6108 16.812ZM9.90202 11.7741C10.248 11.4161 10.6588 11.1322 11.1108 10.9384C11.5629 10.7447 12.0474 10.645 12.5368 10.645C13.0261 10.645 13.5106 10.7447 13.9627 10.9384C14.4147 11.1322 14.8255 11.4161 15.1715 11.7741C15.5175 12.1321 15.792 12.557 15.9792 13.0247C16.1665 13.4925 16.2628 13.9938 16.2628 14.5C16.2628 15.0062 16.1665 15.5075 15.9792 15.9753C15.792 16.443 15.5175 16.8679 15.1715 17.2259C14.4727 17.9489 13.525 18.355 12.5368 18.355C11.5485 18.355 10.6008 17.9489 9.90202 17.2259C9.20324 16.503 8.81067 15.5224 8.81067 14.5C8.81067 13.4776 9.20324 12.497 9.90202 11.7741ZM17.0892 11.2191C17.175 11.1354 17.2436 11.0348 17.2911 10.9232C17.3386 10.8115 17.3639 10.6912 17.3656 10.5693C17.3674 10.4473 17.3454 10.3263 17.3011 10.2133C17.2568 10.1003 17.191 9.99762 17.1077 9.91139C17.0243 9.82516 16.9251 9.75711 16.8159 9.71126C16.7066 9.66542 16.5896 9.64271 16.4718 9.64449C16.3539 9.64627 16.2376 9.67249 16.1297 9.72161C16.0218 9.77073 15.9246 9.84175 15.8437 9.93045C15.6864 10.103 15.6003 10.3321 15.6036 10.5693C15.607 10.8064 15.6995 11.0329 15.8616 11.2006C16.0237 11.3683 16.2426 11.464 16.4718 11.4675C16.701 11.4709 16.9225 11.3818 17.0892 11.2191Z" fill="#001B48"/>
</svg>
