<svg width="31" height="30" viewBox="0 0 31 30" fill="none" xmlns="http://www.w3.org/2000/svg">
<circle cx="15.6655" cy="15" r="15" fill="#E9197F"/>
<path d="M7.26553 17.324H5.88553V23H4.79353V17.324H3.94153V16.424H4.79353V15.956C4.79353 15.22 4.98153 14.684 5.35753 14.348C5.74153 14.004 6.35353 13.832 7.19353 13.832V14.744C6.71353 14.744 6.37353 14.84 6.17353 15.032C5.98153 15.216 5.88553 15.524 5.88553 15.956V16.424H7.26553V17.324Z" fill="#E9197F"/>
<path d="M3.66553 24.2H7.61353V24.8H3.66553V24.2Z" fill="#E9197F"/>
<a href="https://www.facebook.com/InstitutoEducaTec/">
<rect fill="black" fill-opacity="0" y="-9.53674e-07" width="3.948" height="18"/>
</a>
<path d="M13.3759 5C8.30485 5 4.19385 9.26896 4.19385 14.5349C4.19385 19.0064 7.15856 22.7586 11.1579 23.7891V17.4488H9.26456V14.5349H11.1579V13.2793C11.1579 10.034 12.5723 8.52982 15.6406 8.52982C16.2224 8.52982 17.2262 8.64843 17.6368 8.76667V11.4078C17.4201 11.3842 17.0436 11.3724 16.5761 11.3724C15.0706 11.3724 14.4888 11.9647 14.4888 13.5044V14.5349H17.488L16.9727 17.4488H14.4888V24C19.0354 23.4298 22.5584 19.4099 22.5584 14.5349C22.558 9.26896 18.447 5 13.3759 5Z" fill="white"/>
</svg>
