<svg width="25" height="24" viewBox="0 0 25 24" fill="none" xmlns="http://www.w3.org/2000/svg">
<path d="M12.6655 1.5C10.4783 1.50258 8.38137 2.3726 6.83475 3.91922C5.28814 5.46584 4.41812 7.56276 4.41554 9.75C4.41292 11.5374 4.99677 13.2763 6.07754 14.7C6.07754 14.7 6.30254 14.9963 6.33929 15.039L12.6655 22.5L18.9948 15.0353C19.0278 14.9955 19.2535 14.7 19.2535 14.7L19.2543 14.6978C20.3345 13.2747 20.9181 11.5366 20.9155 9.75C20.913 7.56276 20.0429 5.46584 18.4963 3.91922C16.9497 2.3726 14.8528 1.50258 12.6655 1.5ZM12.6655 12.75C12.0722 12.75 11.4922 12.5741 10.9988 12.2444C10.5055 11.9148 10.121 11.4462 9.8939 10.8981C9.66683 10.3499 9.60742 9.74667 9.72318 9.16473C9.83894 8.58279 10.1247 8.04824 10.5442 7.62868C10.9638 7.20912 11.4983 6.9234 12.0803 6.80764C12.6622 6.69189 13.2654 6.7513 13.8136 6.97836C14.3618 7.20542 14.8303 7.58994 15.1599 8.08329C15.4896 8.57664 15.6655 9.15666 15.6655 9.75C15.6645 10.5453 15.3482 11.3078 14.7858 11.8702C14.2234 12.4326 13.4609 12.749 12.6655 12.75Z" fill="#E9197F"/>
</svg>
